<svg width="48" height="48" xmlns="http://www.w3.org/2000/svg" xmlns:xlink="http://www.w3.org/1999/xlink" xml:space="preserve" overflow="hidden"><g transform="translate(-356 -440)"><g><g><g><g><path d="M378.71 466.759C378.904 466.947 379.214 466.942 379.402 466.747 379.585 466.557 379.585 466.257 379.402 466.067L375.922 462.587 379.587 458.923 383.067 462.402C383.261 462.59 383.571 462.584 383.759 462.39 383.942 462.2 383.942 461.899 383.759 461.71L380.28 458.231 382.948 455.562 379.486 452.101C376.76 449.369 372.381 449.22 369.476 451.761L368.416 450.665C366.106 448.286 362.933 446.941 359.618 446.934L357.979 446.934 357.979 447.913 359.618 447.913C362.668 447.92 365.586 449.158 367.712 451.346L368.782 452.453C366.226 455.358 366.365 459.749 369.101 462.486L372.562 465.948 375.23 463.28ZM369.793 461.794C367.307 459.308 367.307 455.278 369.793 452.793 372.278 450.307 376.308 450.307 378.794 452.793L381.563 455.562 372.562 464.563Z" fill="#000000" fill-rule="nonzero" fill-opacity="1"/><path d="M401.409 479.167C398.486 479.172 395.677 478.036 393.581 476.001L392.319 474.78C394.854 471.873 394.706 467.499 391.979 464.77L388.517 461.308 378.132 471.694 381.594 475.156C384.329 477.896 388.724 478.035 391.628 475.474L392.901 476.705C395.179 478.917 398.232 480.152 401.409 480.146L403.021 480.146 403.021 479.167ZM382.286 474.463 379.516 471.694 388.517 462.693 391.287 465.463C393.786 467.935 393.808 471.964 391.336 474.463 388.864 476.963 384.834 476.984 382.335 474.513 382.319 474.496 382.302 474.48 382.286 474.463Z" fill="#000000" fill-rule="nonzero" fill-opacity="1"/></g></g></g></g></g></svg>