<svg width="48" height="47" xmlns="http://www.w3.org/2000/svg" xmlns:xlink="http://www.w3.org/1999/xlink" xml:space="preserve" overflow="hidden"><g transform="translate(-366 -705)"><g><g><g><g><path d="M24.9167 38.7646 28.613 36.547 28.613 33.2407 24.9167 35.4583ZM25.875 35.9993 27.6546 34.9313 27.6546 36.0041 25.875 37.0717Z" fill="#000000" fill-rule="nonzero" fill-opacity="1" transform="matrix(1.02174 0 0 1 367 706)"/><path d="M29.4884 3.7811 23.7044 9.03469 23 8.60775 22.2865 9.039 16.4972 3.7811 2.77917 12.097 8.55887 17.3597 8.3514 17.4858 8.3514 18.4158 2.77917 23.4897 8.35331 26.8678 8.35331 33.9116 23 42.7896 37.6486 33.913 37.6486 26.8592 43.2069 23.4897 37.6486 18.4287 37.6486 17.4858 37.4325 17.3545 43.2089 12.097ZM4.37096 12.2518 16.3822 4.97183 21.4317 9.55794 11.4827 15.5878 9.40604 16.8336ZM4.37096 23.3349 9.41419 18.7445 21.4317 26.0279 16.3822 30.6144ZM22.5208 41.3799 9.30973 33.373 9.30973 27.4486 16.4972 31.8052 22.287 26.5458 22.5208 26.6896ZM23 25.8079 9.69402 17.7924 12.0213 16.3822 22.9966 9.79225 36.3108 17.8135 36.202 17.8787 36.1924 17.8624 32.2067 20.2779ZM36.6903 33.373 23.4792 41.3799 23.4792 26.6896 23.7044 26.553 29.4884 31.8052 36.6903 27.4404ZM41.6151 23.3354 29.6034 30.6144 24.5597 26.0331 32.6749 21.1145 36.592 18.7627ZM36.5777 16.8365 24.5597 9.55315 29.6034 4.97231 41.6151 12.2518Z" fill="#000000" fill-rule="nonzero" fill-opacity="1" transform="matrix(1.02174 0 0 1 367 706)"/></g></g></g></g></g></svg>